#!OML:ASF E:\motion texture\Top Level 1\Subject 1\Session 1\male.ASF
:FULLY-SPECIFIED
:DEGREES
323
root -20.9406 17.6745 3.50814 455.599 -79.8313 -456.589
lowerback 1.46724 0.599 6.54776
upperback -1.51718 0.929084 4.76852
thorax -2.3651 0.334122 1.22422
lowerneck -19.044 -3.42676 -4.24596
upperneck 18.7456 -4.6718 4.7568
head 9.25794 -1.99326 1.70024
rclavicle 4.62174e-015 5.84427e-014
rhumerus -16.2329 22.8138 -91.6831
rradius 70.5528
rwrist -5.11653
rhand -14.1066 -10.5449
rfingers 7.12502
rthumb 12.0264 -40.1793
lclavicle 4.62174e-015 5.84427e-014
lhumerus -40.2033 -9.0234 90.4142
lradius 40.6224
lwrist -9.44592
lhand -10.058 4.03232
lfingers 7.12502
lthumb 15.9278 33.3974
rfemur -14.0954 1.38274 37.3558
rtibia 28.7822
rfoot 171.04 -186.319
rtoes 21.8154
lfemur -39.4861 5.60774 -4.14507
ltibia 81.1766
lfoot 728.544 -200.491
ltoes -4.08747
324
root -21.0711 17.7133 3.49722 457.189 -79.5359 -458.39
lowerback 1.6216 0.839778 6.89646
upperback -1.43459 1.26688 4.74136
thorax -2.35033 0.496902 0.990352
lowerneck -18.8694 -3.54183 -4.29701
upperneck 18.8196 -4.86636 4.90469
head 9.26741 -2.07545 1.73449
rclavicle 3.2054e-015 -1.15295e-014
rhumerus -13.9415 23.5757 -91.2125
rradius 71.2887
rwrist -4.8721
rhand -14.0779 -10.4138
rfingers 7.12502
rthumb 12.054 -40.0466
lclavicle 3.2054e-015 -1.15295e-014
lhumerus -41.3169 -8.65382 89.5657
lradius 40.4001
lwrist -9.19291
lhand -9.8747 3.83453
lfingers 7.12502
lthumb 16.1043 33.1854
rfemur -12.8881 1.56934 37.7221
rtibia 27.9893
rfoot 170.879 -186.2
rtoes 21.955
lfemur -42.9611 6.43637 -4.15125
ltibia 77.7666
lfoot 727.576 -175.964
ltoes -3.38363
325
root -21.2032 17.7512 3.48941 458.839 -79.2314 -460.263
lowerback 1.79077 1.08869 7.30411
upperback -1.34589 1.61896 4.68657
thorax -2.33037 0.666171 0.694387
lowerneck -18.7355 -3.66334 -4.34431
upperneck 18.8923 -5.07256 5.06602
head 9.2851 -2.16059 1.77078
rclavicle -5.24295e-015 -1.47101e-014
rhumerus -11.7927 24.1183 -90.723
rradius 72.0263
rwrist -4.64096
rhand -13.9956 -10.2452
rfingers 7.12502
rthumb 12.1333 -39.8734
lclavicle -5.24295e-015 -1.47101e-014
lhumerus -42.4642 -8.45059 88.7404
lradius 40.362
lwrist -8.83039
lhand -9.59542 3.70958
lfingers 7.12502
lthumb 16.3732 33.0385
rfemur -11.6755 1.75964 38.0756
rtibia 27.2279
rfoot 170.719 -186.067
rtoes 22.0565
lfemur -46.3464 7.2146 -4.21314
ltibia 75.4026
lfoot 727.065 -174.789
ltoes -2.94147
326
root -21.3366 17.7874 3.48399 460.441 -78.9504 -462.096
lowerback 1.97036 1.34009 7.72077
upperback -1.25087 1.97664 4.60618
thorax -2.30263 0.83883 0.366464
lowerneck -18.6333 -3.79258 -4.38659
upperneck 18.9488 -5.28751 5.2228
head 9.30357 -2.24932 1.8031
rclavicle 2.93207e-015 7.59357e-014
rhumerus -9.78018 24.4836 -90.2108
rradius 72.7672
rwrist -4.48947
rhand -13.892 -10.051
rfingers 7.12502
rthumb 12.2332 -39.6733
lclavicle 2.93207e-015 7.59357e-014
lhumerus -43.6207 -8.3957 87.9553
lradius 40.4728
lwrist -8.40869
lhand -9.26066 3.62576
lfingers 7.12502
lthumb 16.6955 32.9278
rfemur -10.469 1.95902 38.3847
rtibia 26.5015
rfoot 170.567 -185.959
rtoes 22.0844
lfemur -49.6508 7.90725 -4.35739
ltibia 73.3245
lfoot 726.672 -173.814
ltoes -2.64926
327
root -21.4707 17.8212 3.47991 461.905 -78.722 -463.791
lowerback 2.16174 1.58421 8.09647
upperback -1.1587 2.32681 4.50546
thorax -2.27945 1.00889 0.0398235
lowerneck -18.5493 -3.92594 -4.43377
upperneck 18.9838 -5.50304 5.37354
head 9.31837 -2.33894 1.83381
rclavicle 8.65956e-015 3.75703e-014
rhumerus -7.90877 24.7112 -89.676
rradius 73.5099
rwrist -4.44453
rhand -13.788 -9.85926
rfingers 7.12502
rthumb 12.3335 -39.4755
lclavicle 8.65956e-015 3.75703e-014
lhumerus -44.7682 -8.44631 87.2125
lradius 40.6892
lwrist -8.00623
lhand -8.85603 3.57176
lfingers 7.12502
lthumb 17.085 32.8405
rfemur -9.28889 2.17097 38.6274
rtibia 25.8164
rfoot 170.417 -185.913
rtoes 22.0274
lfemur -52.8914 8.48371 -4.60214
ltibia 71.5023
lfoot 726.364 -172.963
ltoes -2.38769
328
root -21.6062 17.8529 3.47675 463.247 -78.5567 -465.36
lowerback 2.35376 1.82054 8.40838
upperback -1.07142 2.66693 4.39088
thorax -2.25862 1.17546 -0.266146
lowerneck -18.473 -4.06266 -4.48871
upperneck 18.9928 -5.71527 5.50995
head 9.32558 -2.429 1.86116
rclavicle 8.75895e-015 -3.02153e-014
rhumerus -6.17038 24.8293 -89.1131
rradius 74.2459
rwrist -4.49606
rhand -13.7069 -9.68709
rfingers 7.12502
rthumb 12.4117 -39.2986
lclavicle 8.75895e-015 -3.02153e-014
lhumerus -45.8889 -8.57813 86.5202
lradius 40.9708
lwrist -7.67495
lhand -8.4445 3.52891
lfingers 7.12502
lthumb 17.4811 32.7629
rfemur -8.14089 2.4021 38.7972
rtibia 25.1736
rfoot 170.269 -185.942
rtoes 21.9015
lfemur -56.063 8.93504 -4.94933
ltibia 69.9185
lfoot 726.14 -172.229
ltoes -1.99657
329
root -21.7429 17.8823 3.47397 464.351 -78.4565 -466.678
lowerback 2.53933 2.03713 8.64812
upperback -0.995131 2.98005 4.27037
thorax -2.24561 1.32982 -0.538096
lowerneck -18.4063 -4.19944 -4.56019
upperneck 18.9816 -5.91843 5.637
head 9.32762 -2.51684 1.8891
rclavicle -9.46712e-015 -2.32578e-014
rhumerus -4.52794 24.8859 -88.5102
rradius 74.94
rwrist -4.63652
rhand -13.6602 -9.54581
rfingers 7.12502
rthumb 12.4567 -39.1546
lclavicle -9.46712e-015 -2.32578e-014
lhumerus -46.9668 -8.75219 85.8681
lradius 41.2896
lwrist -7.43522
lhand -8.05099 3.47942
lfingers 7.12502
lthumb 17.8598 32.6793
rfemur -7.03954 2.63194 38.9018
rtibia 24.5729
rfoot 170.113 -186.05
rtoes 21.7261
lfemur -59.1729 9.23428 -5.38135
ltibia 68.5557
lfoot 725.982 -171.617
ltoes -1.46344
330
root -21.8813 17.9094 3.47182 465.262 -78.4023 -467.782
lowerback 2.70955 2.23456 8.83159
upperback -0.934052 3.26607 4.15342
thorax -2.24111 1.47124 -0.774728
lowerneck -18.3527 -4.33364 -4.64717
upperneck 18.9607 -6.1089 5.75118
head 9.32841 -2.60095 1.91672
rclavicle 3.10601e-015 -3.06128e-014
rhumerus -2.96325 24.916 -87.859
rradius 75.5764
rwrist -4.83049
rhand -13.633 -9.43015
rfingers 7.12502
rthumb 12.483 -39.0373
lclavicle 3.10601e-015 -3.06128e-014
lhumerus -47.9912 -8.94242 85.2531
lradius 41.6164
lwrist -7.28254
lhand -7.7103 3.41546
lfingers 7.12502
lthumb 18.1876 32.5852
rfemur -5.98984 2.85598 38.9621
rtibia 24.0123
rfoot 169.946 -186.219
rtoes 21.5155
lfemur -62.2113 9.39599 -5.86513
ltibia 67.4073
lfoot 725.872 -171.142
ltoes -0.838774
331
root -22.0217 17.9347 3.47017 465.938 -78.3754 -468.618
lowerback 2.84927 2.41102 8.98574
upperback -0.890475 3.52119 4.04329
thorax -2.23925 1.59735 -0.986622
lowerneck -18.3069 -4.46014 -4.73338
upperneck 18.9327 -6.28335 5.84671
head 9.32687 -2.67938 1.93988
rclavicle -5.3616e-014 -4.36332e-014
rhumerus -1.46255 24.9318 -87.1648
rradius 76.1412
rwrist -5.01083
rhand -13.6347 -9.31062
rfingers 7.12502
rthumb 12.4813 -38.9179
lclavicle -5.3616e-014 -4.36332e-014
lhumerus -48.9563 -9.14842 84.6702
lradius 41.9364
lwrist -7.17829
lhand -7.43239 3.33296
lfingers 7.12502
lthumb 18.4549 32.4775
rfemur -5.00191 3.0528 38.9997
rtibia 23.4892
rfoot 169.77 -186.422
rtoes 21.294
lfemur -65.1814 9.42348 -6.36264
ltibia 66.4596
lfoot 725.805 -170.789
ltoes -0.233678
332
root -22.1632 17.9579 3.46902 466.29 -78.3643 -469.099
lowerback 2.97393 2.56095 9.12745
upperback -0.870261 3.74077 3.94508
thorax -2.25552 1.70469 -1.1783
lowerneck -18.2573 -4.57829 -4.81372
upperneck 18.8981 -6.44223 5.92039
head 9.3208 -2.7526 1.95677
rclavicle 2.63887e-014 -3.27995e-015
rhumerus -0.0268969 24.9342 -86.4336
rradius 76.6331
rwrist -5.13289
rhand -13.6201 -9.18107
rfingers 7.12502
rthumb 12.4954 -38.7875
lclavicle 2.63887e-014 -3.27995e-015
lhumerus -49.8619 -9.36294 84.1198
lradius 42.2381
lwrist -7.06645
lhand -7.24146 3.22016
lfingers 7.12502
lthumb 18.6386 32.3472
rfemur -4.07628 3.18814 39.0301
rtibia 23.0026
rfoot 169.587 -186.634
rtoes 21.0731
lfemur -68.0726 9.31194 -6.8402
ltibia 65.7015
lfoot 725.757 -170.516
ltoes 0.238627
333
root -22.3052 17.9793 3.46858 466.354 -78.3559 -469.271
lowerback 3.09142 2.68641 9.27248
upperback -0.861456 3.92792 3.86168
thorax -2.28157 1.79499 -1.35555
lowerneck -18.2253 -4.68778 -4.89455
upperneck 18.8616 -6.58518 5.98349
head 9.31611 -2.81911 1.97205
rclavicle -2.16178e-015 -5.00937e-014
rhumerus 1.35446 24.9271 -85.6674
rradius 77.0594
rwrist -5.17247
rhand -13.5845 -9.01279
rfingers 7.12502
rthumb 12.5297 -38.6171
lclavicle -2.16178e-015 -5.00937e-014
lhumerus -50.6884 -9.56877 83.5941
lradius 42.5096
lwrist -6.93694
lhand -7.05314 3.14798
lfingers 7.12502
lthumb 18.8197 32.2576
rfemur -3.20128 3.24847 39.062
rtibia 22.5507
rfoot 169.402 -186.825
rtoes 20.8289
lfemur -70.8579 9.08419 -7.27581
ltibia 65.1263
lfoot 725.715 -170.289
ltoes 0.57614
334
root -22.4476 17.999 3.46885 466.225 -78.3563 -469.248
lowerback 3.22223 2.79349 9.41035
upperback -0.857052 4.09261 3.78953
thorax -2.32166 1.87343 -1.51765
lowerneck -18.2106 -4.793 -4.97262
upperneck 18.8219 -6.71753 6.02949
head 9.31225 -2.88183 1.98217
rclavicle -1.25483e-015 -5.96354e-015
rhumerus 2.68233 24.909 -84.8749
rradius 77.4272
rwrist -5.12597
rhand -13.5278 -8.84113
rfingers 7.12502
rthumb 12.5844 -38.4421
lclavicle -1.25483e-015 -5.96354e-015
lhumerus -51.4315 -9.76775 83.0937
lradius 42.7444
lwrist -6.77295
lhand -6.90891 3.09013
lfingers 7.12502
lthumb 18.9584 32.1862
rfemur -2.35587 3.23789 39.08
rtibia 22.1352
rfoot 169.22 -186.979
rtoes 20.5566
lfemur -73.4964 8.76673 -7.67324
ltibia 64.7281
lfoot 725.686 -170.072
ltoes 0.830852
335
root -22.5902 18.017 3.46972 465.991 -78.3742 -469.137
lowerback 3.38247 2.88764 9.52424
upperback -0.845294 4.24279 3.72709
thorax -2.37324 1.94466 -1.65798
lowerneck -18.2197 -4.89413 -5.05461
upperneck 18.778 -6.83971 6.06913
head 9.31073 -2.94012 1.99176
rclavicle 2.19098e-014 -5.46161e-014
rhumerus 3.95601 24.8697 -84.0639
rradius 77.7458
rwrist -5.01912
rhand -13.4493 -8.6765
rfingers 7.12502
rthumb 12.66 -38.2728
lclavicle 2.19098e-014 -5.46161e-014
lhumerus -52.0836 -9.94886 82.6135
lradius 42.9423
lwrist -6.59248
lhand -6.80339 3.04658
lfingers 7.12502
lthumb 19.0599 32.1327
rfemur -1.51792 3.16748 39.0681
rtibia 21.7595
rfoot 169.043 -187.083
rtoes 20.2825
lfemur -75.9469 8.38707 -8.0422
ltibia 64.499
lfoot 725.656 -169.828
ltoes 1.06687
336
root -22.7326 18.0333 3.47097 465.763 -78.4148 -469.065
lowerback 3.58958 2.9733 9.59752
upperback -0.832908 4.38662 3.67412
thorax -2.45394 2.01217 -1.76952
lowerneck -18.2046 -4.98682 -5.13774
upperneck 18.717 -6.94637 6.09522
head 9.29752 -2.99339 1.99945
rclavicle 4.83606e-015 1.51573e-014
rhumerus 5.13441 24.8103 -83.2659
rradius 78.026
rwrist -4.88245
rhand -13.3544 -8.5201
rfingers 7.12502
rthumb 12.7516 -38.1107
lclavicle 4.83606e-015 1.51573e-014
lhumerus -52.6691 -10.0841 82.1423
lradius 43.1043
lwrist -6.43059
lhand -6.7182 3.01753
lfingers 7.12502
lthumb 19.1418 32.0955
rfemur -0.67591 3.06351 39.0166
rtibia 21.4326
rfoot 168.865 -187.138
rtoes 20.0315
lfemur -78.1781 7.97907 -8.39377
ltibia 64.4286
lfoot 725.62 -169.534
ltoes 1.27566
337
root -22.8749 18.0477 3.47261 465.591 -78.4859 -469.079
lowerback 3.83355 3.05297 9.6228
upperback -0.799222 4.52387 3.62704
thorax -2.5371 2.07767 -1.85093
lowerneck -18.2217 -5.07441 -5.22135
upperneck 18.6471 -7.0403 6.11004
head 9.28591 -3.04106 2.00458
rclavicle 1.62134e-015 1.30701e-014
rhumerus 6.25939 24.7293 -82.4751
rradius 78.2655
rwrist -4.76199
rhand -13.2631 -8.37522
rfingers 7.12502
rthumb 12.8396 -37.9603
lclavicle 1.62134e-015 1.30701e-014
lhumerus -53.1527 -10.156 81.6662
lradius 43.2289
lwrist -6.3155
lhand -6.65291 2.98128
lfingers 7.12502
lthumb 19.2046 32.0531
rfemur 0.1712 2.9319 38.9136
rtibia 21.1553
rfoot 168.689 -187.141
rtoes 19.8091
lfemur -80.181 7.55918 -8.74145
ltibia 64.5019
lfoot 725.591 -169.196
ltoes 1.41169
